<svg xmlns="http://www.w3.org/2000/svg" viewBox="0 0 1012.39 635.9"><defs><style>.cls-1{fill:#a0616a;}.cls-2{fill:#575a89;}.cls-3{fill:#fbd93e;}.cls-4{fill:#3f3d56;}.cls-5{fill:#28b67b;}.cls-6{fill:#facdbb;}.cls-7{fill:#2f2e41;}.cls-8{fill:#ffe1d9;}.cls-9{fill:#f8d31e;}.cls-10{opacity:0.1;isolation:isolate;}.cls-11{fill:#eef1ee;}.cls-12{fill:#ef9aa4;}.cls-13{fill:#f37f89;}.cls-14{fill:#2e3d73;}.cls-15{fill:#b6e5ff;}</style></defs><title>Asset 1</title><g id="Layer_2" data-name="Layer 2"><g id="e4efdc2f-150c-4196-a68d-a8467dcc9971"><path class="cls-1" d="M378.89,266.4s83,4,88,33-97,3-97,3Z"/><path class="cls-2" d="M247.89,174.4s14,4,25,28,33,46,33,46l89,17-15,45-85-11-53-30Z"/><path class="cls-3" d="M247.89,174.4s14,4,25,28,33,46,33,46l89,17-15,45-85-11-53-30Z"/><rect class="cls-4" x="824.39" y="92.9" width="105" height="2"/><rect class="cls-4" x="409.39" y="92.9" width="333" height="2"/><rect class="cls-5" x="30.39" y="333.9" width="789" height="301"/><polygon class="cls-6" points="115.89 128.4 124.89 185.4 186.89 188.4 179.89 104.4 115.89 128.4"/><path class="cls-7" d="M50.39,508.9l-3,126h94l14-50,11,50h98s2-144-9-145S50.39,508.9,50.39,508.9Z"/><circle class="cls-8" cx="135.89" cy="89.4" r="54"/><path class="cls-9" d="M44.89,514.4l28-138-37-183,85.2-32,41.8-5,21-3.9,15,3.9s60,15,63,26-12,101-12,101l-14,74,31,133s-129,44-220,24Z"/><polygon class="cls-10" points="82.39 243.9 82.39 280.9 200.39 281.1 88.39 268.9 82.39 243.9"/><polygon class="cls-10" points="72.29 346.1 220.39 324.9 72.29 366.9 72.29 346.1"/><polygon class="cls-10" points="307.39 248.9 291.49 306.2 318.39 250.8 307.39 248.9"/><path class="cls-7" d="M180.29,35.3l9.9-4s-20.8-22.9-49.7-20.9l8.1-8.9s-19.9-8-37.9,12.9c-9.5,11-20.5,23.9-27.3,38.4H72.89l4.4,9.8-15.5,9.8,15.9-1.8a51.82,51.82,0,0,0-.4,16.2A20.76,20.76,0,0,0,85,100.5h0S97.29,75,97.29,71V81s9.9-8.9,9.9-14.9l5.4,7,2.7-10.9L148.69,73l-5.4-8.9,20.8,3L156,56.2s23.5,12.9,24.4,23.9,7.8,21.3,7.8,21.3S206.49,50.2,180.29,35.3Z"/><rect class="cls-11" x="233.39" y="234.9" width="384" height="401"/><rect class="cls-12" x="273.39" y="322.9" width="284" height="40"/><rect class="cls-13" x="322.19" y="428.9" width="186" height="20"/><rect class="cls-13" x="322.59" y="463.9" width="186" height="20"/><rect class="cls-13" x="322.89" y="498.9" width="93" height="20"/><rect class="cls-14" x="519.39" y="599.9" width="43" height="20"/><path class="cls-6" d="M205.89,285.4s87-13,100,6-92,29-92,29Z"/><path class="cls-3" d="M45.89,192.4h-6.3a10.55,10.55,0,0,0-7,2.7c-5.9,5.5-18.5,19.8-23.8,45.3-7,34-19,100,8,105s204-19,204-19l-13-46-128,1s2-22-2-36S45.89,192.4,45.89,192.4Z"/><circle class="cls-15" cx="409.39" cy="93.9" r="41"/><circle class="cls-15" cx="596.39" cy="93.9" r="41"/><path class="cls-4" d="M783.39,135.9a42,42,0,1,1,42-42A42,42,0,0,1,783.39,135.9Zm0-82a40,40,0,1,0,40,40,40,40,0,0,0-40-40Z"/><path class="cls-4" d="M970.39,135.9a42,42,0,1,1,42-42A42,42,0,0,1,970.39,135.9Zm0-82a40,40,0,1,0,40,40,40,40,0,0,0-40-40Z"/><polygon class="cls-4" points="403.69 111.4 385.99 87.7 392.39 82.9 404.59 99.2 460.79 43 466.49 48.6 403.69 111.4"/></g></g></svg>